# xmcd
#
# Track frame offsets: 
#        150
#        19493
#        37740
#        62405
#        82328
#        115350
#        137650
#        162225
#        184438
#        188700
#
# Disc length: 2843 seconds
#
# Revision: 2
# Processed by: cddbd v1.5.2PL0 Copyright (c) Steve Scherf et al.
# Submitted via: ExactAudioCopy v0.99pb5
#
DISCID=880b190a
DTITLE=Soul Ballet - Dial it In
DYEAR=2002
DGENRE=Smooth Jazz
TTITLE0=Want You
TTITLE1=Dial it In
TTITLE2=Nu Funk City
TTITLE3=I Feel The Love
TTITLE4=Ahh Girl
TTITLE5=Feeling The Beat
TTITLE6=Long Deep Kisses
TTITLE7=1 Track Mind
TTITLE8=What Was...
TTITLE9=All About The Night
EXTD=
EXTT0=
EXTT1=
EXTT2=
EXTT3=
EXTT4=
EXTT5=
EXTT6=
EXTT7=
EXTT8=
EXTT9=
PLAYORDER=
